<?xml version="1.0" standalone="no"?><!DOCTYPE svg PUBLIC "-//W3C//DTD SVG 1.1//EN" "http://www.w3.org/Graphics/SVG/1.1/DTD/svg11.dtd"><svg t="1603770738168" class="icon" viewBox="0 0 1024 1024" version="1.1" xmlns="http://www.w3.org/2000/svg" p-id="11400" xmlns:xlink="http://www.w3.org/1999/xlink" width="200" height="200"><defs><style type="text/css"></style></defs><path d="M653.635528 832.171403A197.200943 197.200943 0 0 1 672.331295 748.413959l-396.53036 98.431626h-70.72055L261.986329 675.319343 694.455131 567.933805l35.815645 108.163249a197.016749 197.016749 0 0 1 59.494903-31.640564L759.209817 551.97026l-50.643322-152.728145-53.621138-161.682056-62.155494-187.73538a33.257385 33.257385 0 0 0-31.446137-22.799216H430.657553a32.991326 32.991326 0 0 0-31.446137 22.799216l-90.664748 273.89759-63.168565 190.702962-59.709797 180.101531-51.298238 154.518927-4.533237 13.742975H37.51433a33.155055 33.155055 0 0 0-33.134588 33.30855v44.677459a33.236919 33.236919 0 0 0 33.134588 33.185754h676.209618a196.904185 196.904185 0 0 1-60.08842-141.789024zM454.36751 94.266779h83.296958l0.388856 1.176799c-0.665148 24.08858-19.033457 43.398329-41.955471 43.39833s-41.576848-19.442779-41.95547-43.674622z m-69.687013 210.248071l205.684135-51.011712 53.477875 161.55926L321.511932 495.27921z m618.300836 490.725507h-29.194868c-2.762921-5.914698-6.641244-18.276212-11.655434-27.066395l20.609346-20.036296a16.311468 16.311468 0 0 0 0-23.290402l-23.535996-23.392733a16.618459 16.618459 0 0 0-23.535996 0.061398l-19.442778 20.670744c-8.790183-4.983491-21.131231-8.861814-27.056162-11.594036v-29.215334c0-9.209737-9.752089-16.649159-18.920894-16.649158h-33.30855c-9.209737 0-18.920894 7.439421-18.920894 16.649158v29.205101c-5.945397 2.742455-18.265979 6.651477-27.056162 11.634968l-20.026062-20.629812a16.372866 16.372866 0 0 0-23.28017 0l-23.382499 23.535996a16.628692 16.628692 0 0 0 0.071631 23.535996l20.650278 19.442778c-4.983491 8.790183-8.861814 21.151697-11.594036 27.066395h-29.194868c-9.209737 0-16.669625 9.762322-16.669625 18.931127v33.400648c0 9.209737 7.47012 18.931127 16.669625 18.931126h29.194868c2.773154 5.95563 6.641244 18.276212 11.624735 27.066395l-20.619579 20.077228a16.301235 16.301235 0 0 0 0 23.24947l23.535996 23.402966a16.659392 16.659392 0 0 0 23.535995-0.071631l19.442779-20.660511c8.790183 4.983491 21.110765 8.861814 27.056162 11.594036V980.325379c0 9.209737 9.752089 16.679858 18.920894 16.679857h33.277851c9.209737 0 18.951593-7.47012 18.951593-16.679857v-29.2358c5.914698-2.732222 18.265979-6.651477 27.056161-11.665667l20.159092 20.629811a16.239837 16.239837 0 0 0 23.239238 0l23.392732-23.535995a16.649159 16.649159 0 0 0-0.071631-23.535996l-20.69121-19.442778c5.01419-8.790183 8.892513-21.110765 11.624735-27.066395h29.194868c9.209737 0 16.638926-9.762322 16.638925-18.931127v-33.339249c-0.051165-9.199504-7.490586-18.961826-16.69009-18.961826z m-149.402407 110.516848a74.92633 74.92633 0 1 1 74.895631-74.92633 74.885398 74.885398 0 0 1-74.895631 74.916097z" p-id="11401" fill="#8a8a8a"></path></svg>