<?xml version="1.0" standalone="no"?><!DOCTYPE svg PUBLIC "-//W3C//DTD SVG 1.1//EN" "http://www.w3.org/Graphics/SVG/1.1/DTD/svg11.dtd"><svg t="1603770673471" class="icon" viewBox="0 0 1024 1024" version="1.1" xmlns="http://www.w3.org/2000/svg" p-id="9126" xmlns:xlink="http://www.w3.org/1999/xlink" width="200" height="200"><defs><style type="text/css"></style></defs><path d="M801.129412 124.084706a102.4 102.4 0 0 1 102.038588 93.605647l0.361412 8.854588v373.458824a102.4 102.4 0 0 1-93.545412 102.038588l-8.854588 0.361412h-150.226824a30.117647 30.117647 0 0 1-5.421176-59.753412l5.421176-0.481882H801.129412a42.164706 42.164706 0 0 0 41.803294-36.442353l0.361412-5.722353v-373.458824a42.164706 42.164706 0 0 0-36.442353-41.803294l-5.722353-0.361412H222.870588a42.164706 42.164706 0 0 0-41.803294 36.442353L180.705882 226.484706v373.458823a42.164706 42.164706 0 0 0 36.442353 41.743059l5.722353 0.421647H512a29.274353 29.274353 0 0 1 23.371294 11.083294l172.815059 204.318118a30.117647 30.117647 0 0 1-46.019765 38.912L542.117647 754.447059v122.578823l-0.481882 5.421177a30.117647 30.117647 0 0 1-59.753412-5.421177l-0.060235-174.682353H222.870588a102.4 102.4 0 0 1-102.038588-93.545411L120.470588 600.003765v-373.458824a102.4 102.4 0 0 1 93.545412-102.038588l8.854588-0.361412h578.258824zM451.885176 736.075294a30.117647 30.117647 0 0 1 5.662118 38.128941l-3.252706 4.397177-104.267294 116.85647a30.117647 30.117647 0 0 1-48.188235-35.779764l3.252706-4.336942 104.267294-116.85647a30.117647 30.117647 0 0 1 42.526117-2.409412z m253.590589-284.310588a30.117647 30.117647 0 0 1 5.421176 59.753412l-5.421176 0.481882H327.619765a30.117647 30.117647 0 0 1-5.421177-59.753412l5.421177-0.481882h377.97647zM327.619765 301.176471a36.141176 36.141176 0 1 1 0 72.282353 36.141176 36.141176 0 0 1 0-72.282353z m377.97647 6.023529a30.117647 30.117647 0 0 1 5.421177 59.753412l-5.421177 0.481882H472.124235a30.117647 30.117647 0 0 1-5.421176-59.753412l5.421176-0.481882h233.411765z" fill="#8a8a8a" p-id="9127"></path></svg>