<?xml version="1.0" standalone="no"?><!DOCTYPE svg PUBLIC "-//W3C//DTD SVG 1.1//EN" "http://www.w3.org/Graphics/SVG/1.1/DTD/svg11.dtd"><svg t="1604570086153" class="icon" viewBox="0 0 1024 1024" version="1.1" xmlns="http://www.w3.org/2000/svg" p-id="1477" xmlns:xlink="http://www.w3.org/1999/xlink" width="200" height="200"><defs><style type="text/css"></style></defs><path d="M877.226667 375.04a31.274667 31.274667 0 0 1 30.890666 31.232v276.181333c0 157.994667-98.773333 256.213333-257.152 256.213334h-125.952a31.658667 31.658667 0 0 1-31.701333-31.232 32 32 0 0 1 31.701333-31.573334h125.952c124.8 0 193.792-68.522667 194.944-193.408V406.272c0-17.237333 13.994667-31.232 31.274667-31.232z m-257.578667-256.597333a31.658667 31.658667 0 0 1 31.317333 31.573333 31.189333 31.189333 0 0 1-31.701333 31.274667H342.186667c-124.842667 0-193.834667 68.821333-193.834667 193.749333v307.413333c0 124.885333 68.992 193.365333 193.834667 193.365334a32 32 0 0 1 31.658666 31.616 31.658667 31.658667 0 0 1-31.658666 31.232C183.765333 938.666667 85.333333 840.448 85.333333 682.453333V375.04c0-158.378667 98.432-256.597333 256.810667-256.597333z m47.701333 285.781333a31.36 31.36 0 0 1 36.693334 1.066667 31.146667 31.146667 0 0 1 8.362666 39.722666l-120.661333 155.392a33.578667 33.578667 0 0 1-21.12 12.074667 31.744 31.744 0 0 1-22.997333-6.826667l-115.754667-90.624-104.106667 135.04a31.317333 31.317333 0 0 1-44.074666 6.4 31.573333 31.573333 0 0 1-5.674667-43.989333l123.306667-160.298667a31.701333 31.701333 0 0 1 44.501333-5.632l115.754667 90.666667 101.802666-129.792zM785.066667 93.866667a111.061333 111.061333 0 0 1 120.96 23.722666c31.786667 31.616 41.344 79.232 24.192 120.618667a110.848 110.848 0 0 1-102.442667 68.352 110.762667 110.762667 0 0 1-110.890667-110.250667l0.256-7.850666A110.634667 110.634667 0 0 1 785.109333 93.866667z m42.666666 54.698666a47.829333 47.829333 0 1 0 47.914667 47.786667c0-26.410667-21.418667-47.786667-47.872-47.786667z" fill="#BFCBD9" p-id="1478"></path></svg>