<?xml version="1.0" standalone="no"?><!DOCTYPE svg PUBLIC "-//W3C//DTD SVG 1.1//EN" "http://www.w3.org/Graphics/SVG/1.1/DTD/svg11.dtd"><svg t="1604570170447" class="icon" viewBox="0 0 1024 1024" version="1.1" xmlns="http://www.w3.org/2000/svg" p-id="2622" xmlns:xlink="http://www.w3.org/1999/xlink" width="200" height="200"><defs><style type="text/css"></style></defs><path d="M673.749333 85.333333a30.378667 30.378667 0 0 1 28.202667 31.36V160.853333C830.336 173.312 896 244.266667 896 371.797333v352.853334C896 866.645333 815.104 938.666667 655.957333 938.666667H368.042667C208.896 938.666667 128 866.56 128 724.693333v-352.853333c0-84.906667 28.928-145.706667 88.32-181.162667l4.138667-2.389333a29.226667 29.226667 0 0 1 27.093333 1.237333 30.293333 30.293333 0 0 1 14.933333 27.946667 30.165333 30.165333 0 0 1-18.005333 26.026667c-39.296 23.381333-57.856 64.170667-57.856 128.298666v11.349334H727.893333c16.213333 0 29.312 13.354667 29.312 29.824a29.568 29.568 0 0 1-29.312 29.781333H186.624v281.941333c0 108.288 52.693333 153.173333 181.418667 153.984h287.914666c126.890667 0 181.034667-46.08 181.034667-154.368v-352.853333c0-94.378667-41.173333-140.032-135.04-150.954667v28.672a29.824 29.824 0 0 1-30.506667 25.856 29.909333 29.909333 0 0 1-28.458666-28.16V114.090667l0.512-4.693334a29.952 29.952 0 0 1 8.96-16.213333 29.013333 29.013333 0 0 1 21.333333-7.765333z m16.896 605.738667l4.693334 0.298667c8.106667 1.024 15.744 4.736 21.589333 10.666666a38.058667 38.058667 0 0 1 11.008 26.794667c0 20.864-16.64 37.76-37.12 37.76a37.418667 37.418667 0 0 1-37.12-37.76c0-20.821333 16.64-37.717333 37.12-37.717333l-0.170667-0.042667z m-177.92 0l4.693334 0.298667a37.546667 37.546667 0 0 1 32.426666 37.461333c0 20.864-16.64 37.76-37.12 37.76a37.418667 37.418667 0 0 1-37.12-37.76c0-20.821333 16.64-37.717333 37.12-37.717333z m-177.877333 0l4.693333 0.298667c8.106667 1.024 15.744 4.736 21.589334 10.666666a38.058667 38.058667 0 0 1 11.008 26.794667c0 20.864-16.64 37.76-37.12 37.76a37.418667 37.418667 0 0 1-37.12-37.76c0-20.821333 16.64-37.717333 37.12-37.717333l-0.170667-0.042667z m355.797333-152.832l4.693334 0.298667c8.106667 1.024 15.744 4.693333 21.589333 10.666666a38.058667 38.058667 0 0 1 11.008 26.794667c0 20.821333-16.64 37.717333-37.12 37.717333a37.418667 37.418667 0 0 1-37.12-37.717333c0-20.864 16.64-37.76 37.12-37.76h-0.170667z m-177.92 0l4.693334 0.298667a37.546667 37.546667 0 0 1 32.426666 37.461333c0 20.821333-16.64 37.717333-37.12 37.717333a37.418667 37.418667 0 0 1-37.12-37.717333c0-20.864 16.64-37.76 37.12-37.76z m-177.877333 0l4.693333 0.298667c8.106667 1.024 15.744 4.693333 21.589334 10.666666a38.058667 38.058667 0 0 1 11.008 26.794667c0 20.821333-16.64 37.717333-37.12 37.717333a37.418667 37.418667 0 0 1-37.12-37.717333c0-20.864 16.64-37.76 37.12-37.76h-0.170667z m16.682667-448.384a29.866667 29.866667 0 0 1 29.482666 26.88v41.088h167.68c16.213333 0 29.354667 13.354667 29.354667 29.824a29.568 29.568 0 0 1-29.312 29.824H380.288v29.824a30.08 30.08 0 0 1-8.704 21.205333 29.013333 29.013333 0 0 1-20.992 8.576l-4.266667-0.426666a29.696 29.696 0 0 1-24.32-29.738667V116.693333l0.853334-4.48a29.781333 29.781333 0 0 1 28.672-22.357333z" fill="#BFCBD9" p-id="2623"></path></svg>