<?xml version="1.0" standalone="no"?><!DOCTYPE svg PUBLIC "-//W3C//DTD SVG 1.1//EN" "http://www.w3.org/Graphics/SVG/1.1/DTD/svg11.dtd"><svg t="1604654698080" class="icon" viewBox="0 0 1175 1024" version="1.1" xmlns="http://www.w3.org/2000/svg" p-id="6145" xmlns:xlink="http://www.w3.org/1999/xlink" width="229.4921875" height="200"><defs><style type="text/css"></style></defs><path d="M22.494426 953.981902h39.348459c12.422295 0 22.494426 15.678951 22.494426 35.009049 0 19.338492-10.072131 35.009049-22.494426 35.009049H22.494426C10.072131 1024 0 1008.329443 0 988.999344c0-19.338492 10.072131-35.017443 22.494426-35.017442z m1037.328787 0h92.772721c12.422295 0 22.486033 15.678951 22.486033 35.009049 0 19.338492-10.072131 35.009049-22.494426 35.009049h-92.764328c-12.422295 0-22.494426-15.670557-22.494426-35.000656 0-19.338492 10.072131-35.017443 22.494426-35.017442z m-899.584 0h812.434885c12.422295 0 22.494426 15.678951 22.494427 35.009049 0 19.338492-10.072131 35.009049-22.494427 35.009049H160.239213c-12.422295 0-22.494426-15.670557-22.494426-35.000656 0-19.338492 10.072131-35.017443 22.494426-35.017442z" fill="#22234C" p-id="6146"></path><path d="M508.617443 717.672918h166.609836l-14.352787 175.045246H522.97023l-14.361181-175.045246z" fill="#FFFFFF" p-id="6147"></path><path d="M517.38859 848.954754h149.075935l-12.850361 43.76341H530.238951z" fill="#DC6CEE" p-id="6148"></path><path d="M668.386623 901.472525H515.466492l-15.611803-192.545574h184.152131l-15.620197 192.545574z m-132.566033-22.326558h112.211935l12.002623-147.892459H523.809574l12.002623 147.892459z" fill="#22234C" p-id="6149"></path><path d="M395.398295 9.232787h671.072525a55.984262 55.984262 0 0 1 55.992655 56.009443v596.438032a56.001049 56.001049 0 0 1-55.984262 55.992656H117.373902a56.001049 56.001049 0 0 1-56.00105-56.001049V65.233836a56.009443 56.009443 0 0 1 56.00105-55.992656h51.787541m74.407868 3.172722h98.513837" fill="#FFFFFF" p-id="6150"></path><path d="M359.541508 892.718164h455.998951v70.018098H359.541508z" fill="#FFFFFF" p-id="6151"></path><path d="M833.082754 980.23659H350.761967v-96.272787h482.312394v96.272787z m-460.011016-22.653901h437.701246v-50.964984H373.071738v50.964984z" fill="#22234C" p-id="6152"></path><path d="M1078.616131 194.324984V61.263738H105.22859v621.400131h195.60918l777.778361-488.338885z m-750.818623-59.450754c6.227934 0 11.272393 5.069639 11.272394 11.322754s-5.044459 11.322754-11.272394 11.322754a11.297574 11.297574 0 0 1-11.264-11.331148c0-2.996459 1.183475-5.87541 3.298623-7.998951a11.247213 11.247213 0 0 1 7.973771-3.315409z m-40.850885 22.645508h-76.061377a8.477377 8.477377 0 0 0-8.452197 8.494164v135.554098c0 6.261508-5.052852 11.331148-11.272393 11.331148a11.297574 11.297574 0 0 1-11.272394-11.331148V166.022295c0-17.206557 13.874361-31.139672 30.996984-31.139672h76.061377c6.227934 0 11.272393 5.069639 11.272393 11.322754s-5.044459 11.322754-11.272393 11.322754z m230.559475 525.144131l561.110033-352.331541v-67.600787l-668.789508 419.932328h107.679475z m332.346754 0h228.763279V539.026885l-228.763279 143.645377z" fill="#BFCBD9" p-id="6153" data-spm-anchor-id="a313x.7781069.0.i3" class="selected"></path><path d="M1056.507803 682.663869H127.336918a30.837508 30.837508 0 0 1-21.822951-9.064918 31.005377 31.005377 0 0 1-9.048131-21.890099V74.718426a30.921443 30.921443 0 0 1 30.871082-30.955016h929.170885a30.921443 30.921443 0 0 1 30.887869 30.955016v576.990426a30.921443 30.921443 0 0 1-30.887869 30.955017zM127.336918 66.274623a8.41023 8.41023 0 0 0-8.418623 8.443803v576.990426c0 4.658361 3.777049 8.443803 8.418623 8.443804h929.170885c4.649967 0 8.427016-3.777049 8.427017-8.443804V74.718426c0-4.658361-3.777049-8.443803-8.427017-8.443803H127.336918z" fill="#261D50" p-id="6154"></path><path d="M1063.801705 735.181639H111.280262c-37.224918-0.041967-67.399344-30.283541-67.432918-67.600787V67.600787C43.880918 30.283541 74.055344 0.033574 111.280262 0h51.98059c6.211148 0 11.247213 5.044459 11.247214 11.264 0 6.227934-5.036066 11.272393-11.247214 11.272393h-51.98059a45.014033 45.014033 0 0 0-44.955278 45.072787v599.963279a45.014033 45.014033 0 0 0 44.955278 45.072787h952.521443a45.014033 45.014033 0 0 0 44.955279-45.072787V67.617574a45.014033 45.014033 0 0 0-44.955279-45.072787h-673.489836a11.247213 11.247213 0 0 1-11.247213-11.272394c0-6.219541 5.036066-11.264 11.247213-11.264h673.489836c37.224918 0.041967 67.399344 30.283541 67.432918 67.600787v599.980066c-0.033574 37.317246-30.208 67.567213-67.432918 67.600787zM336.778492 22.536393h-98.874754a11.247213 11.247213 0 0 1-11.23882-11.272393c0-6.219541 5.036066-11.264 11.247213-11.264h98.874754c6.202754 0 11.230426 5.044459 11.230426 11.264 0 6.227934-5.036066 11.272393-11.238819 11.272393z" fill="#261D50" p-id="6155"></path></svg>
