<?xml version="1.0" standalone="no"?><!DOCTYPE svg PUBLIC "-//W3C//DTD SVG 1.1//EN" "http://www.w3.org/Graphics/SVG/1.1/DTD/svg11.dtd"><svg t="1604570345149" class="icon" viewBox="0 0 1024 1024" version="1.1" xmlns="http://www.w3.org/2000/svg" p-id="862" xmlns:xlink="http://www.w3.org/1999/xlink" width="200" height="200"><defs><style type="text/css"></style></defs><path d="M387.584 489.685333c17.92 0 32.512 14.421333 32.512 32.256v42.368h43.093333a32.554667 32.554667 0 0 1 31.018667 14.933334 32.042667 32.042667 0 0 1 0 34.261333 32.554667 32.554667 0 0 1-31.061333 14.933333h-43.093334v42.794667a32.426667 32.426667 0 1 1-64.981333 0V628.48H312.064a32.554667 32.554667 0 0 1-31.018667-14.933333 32.042667 32.042667 0 0 1 0-34.261334 32.554667 32.554667 0 0 1 31.018667-14.933333h43.093333v-42.410667l0.298667-4.394666a32.426667 32.426667 0 0 1 32.170667-27.861334z m302.293333 158.293334a32.682667 32.682667 0 0 1 35.114667-7.125334 31.701333 31.701333 0 0 1 10.368 52.096 32.298667 32.298667 0 0 1-45.312 0 31.701333 31.701333 0 0 1-0.170667-44.970666z m-61.994666-150.058667a31.957333 31.957333 0 0 1 24.192 0c4.053333 1.706667 7.765333 4.138667 10.965333 7.125333a32.128 32.128 0 0 1 7.168 34.901334 26.24 26.24 0 0 1-7.168 10.496 33.066667 33.066667 0 0 1-45.354667 0 31.018667 31.018667 0 0 1 0-45.397334 29.098667 29.098667 0 0 1 10.24-7.125333z m310.613333-6.570667c-5.76-131.370667-117.034667-231.936-251.136-230.997333a29.781333 29.781333 0 0 0-29.354667 30.165333c0.213333 16.384 13.653333 29.866667 30.122667 29.354667 104.405333-2.090667 186.453333 73.429333 190.805333 173.994667 0.213333 3.925333 0.256 7.893333 0.128 12.586666v185.130667a180.650667 180.650667 0 0 1-50.474666 129.92 180.736 180.736 0 0 1-141.354667 56.021333c-118.4 2.005333-236.288 2.005333-352.256 0.042667a181.845333 181.845333 0 0 1-190.08-186.624v-185.173333a182.314667 182.314667 0 0 1 178.261333-186.026667c3.925333-0.128 7.936 0 13.141334 0.128h199.978666a29.781333 29.781333 0 0 0 29.781334-29.781333v-39.893334a113.365333 113.365333 0 0 0-112.896-111.658666H409.813333a23.722667 23.722667 0 0 1-16.725333-6.869334 23.466667 23.466667 0 0 1-7.210667-16.853333A29.781333 29.781333 0 0 0 356.138667 85.333333H355.84a29.781333 29.781333 0 0 0-29.44 30.08c0.256 22.272 9.130667 43.178667 25.045333 58.752 15.957333 15.701333 36.949333 22.997333 59.008 23.936h42.538667c29.184 0 53.205333 23.637333 53.546667 52.437334v9.813333l-168.917334 0.042667c-5.333333-0.213333-10.624-0.298667-15.786666-0.213334-133.248 2.901333-239.317333 113.664-236.373334 246.272v183.893334c-0.128 5.248-0.085333 10.496 0.128 15.786666 5.845333 133.12 118.613333 237.44 250.24 230.912 57.216 1.024 115.456 1.493333 173.952 1.493334a9757.866667 9757.866667 0 0 0 176.725334-1.536 239.786667 239.786667 0 0 0 185.130666-74.325334 239.445333 239.445333 0 0 0 66.986667-171.733333v-183.765333a245.034667 245.034667 0 0 0-0.128-15.829334" fill="#BFCBD9" p-id="863"></path></svg>