<?xml version="1.0" standalone="no"?><!DOCTYPE svg PUBLIC "-//W3C//DTD SVG 1.1//EN" "http://www.w3.org/Graphics/SVG/1.1/DTD/svg11.dtd"><svg t="1604829652172" class="icon" viewBox="0 0 1024 1024" version="1.1" xmlns="http://www.w3.org/2000/svg" p-id="1704" width="200" height="200" xmlns:xlink="http://www.w3.org/1999/xlink"><defs><style type="text/css"></style></defs><path d="M372.48 217.6a34.133333 34.133333 0 0 1 9.173333 67.456c-133.077333 28.117333-228.096 144.981333-227.754666 280.149333-0.341333 10.538667 0.298667 21.12 1.834666 31.573334 16.426667 134.954667 126.464 239.573333 262.869334 249.984 136.448 10.368 261.248-76.373333 298.154666-207.274667l1.578667-4.266667a34.474667 34.474667 0 0 1 40.32-19.114666c8.874667 2.090667 16.469333 7.68 21.12 15.445333 4.693333 7.765333 5.973333 17.066667 3.584 25.770667a352.64 352.64 0 0 1-171.690667 215.893333 356.266667 356.266667 0 0 1-333.866666 5.077333 351.914667 351.914667 0 0 1-189.738667-272.981333 218.538667 218.538667 0 0 1-2.602667-41.216C85.248 396.757333 203.349333 252.330667 368.213333 218.154667z m201.045333-110.933333c182.4 5.333333 335.36 138.410667 364.672 317.312h0.341334v5.973333l0.128 6.229333c-0.469333 14.506667-6.016 28.544-15.786667 39.509334a63.36 63.36 0 0 1-43.776 21.12l-280.533333 18.602666h-4.48a68.266667 68.266667 0 0 1-68.053334-62.421333l-18.730666-279.04a62.549333 62.549333 0 0 1 17.578666-47.573333 66.048 66.048 0 0 1 48.64-19.712z m1.877334 67.626666l18.688 274.218667 276.778666-18.176c-25.856-143.658667-148.736-250.112-295.466666-256z" fill="#BFCBD9" p-id="1705"></path></svg>