<?xml version="1.0" standalone="no"?><!DOCTYPE svg PUBLIC "-//W3C//DTD SVG 1.1//EN" "http://www.w3.org/Graphics/SVG/1.1/DTD/svg11.dtd"><svg t="1604570121946" class="icon" viewBox="0 0 1024 1024" version="1.1" xmlns="http://www.w3.org/2000/svg" p-id="1844" xmlns:xlink="http://www.w3.org/1999/xlink" width="200" height="200"><defs><style type="text/css"></style></defs><path d="M444.672 864.426667h-170.666667a100.906667 100.906667 0 0 1-100.565333-100.138667V424.832a62.72 62.72 0 0 1 22.613333-47.872l30.08-22.272a33.408 33.408 0 0 0-38.570666-53.034667l-30.805334 22.997334A129.109333 129.109333 0 0 0 106.666667 424.832v339.84a167.68 167.68 0 0 0 167.338666 167.296h170.666667a33.408 33.408 0 0 0 0-66.773333v-0.725334z" fill="#BFCBD9" p-id="1845"></path><path d="M908.416 424.106667a130.218667 130.218667 0 0 0-48.597333-100.224L603.434667 119.466667a153.984 153.984 0 0 0-192.896 0L329.258667 178.474667a34.048 34.048 0 0 0 39.68 55.253333l82.389333-61.568a87.552 87.552 0 0 1 111.317333 0l256.384 204.416c14.72 11.690667 23.466667 29.44 23.722667 48.213333v339.882667a100.181333 100.181333 0 0 1-100.181333 100.181333h-76.032a14.08 14.08 0 0 1-14.08-14.08v-153.258666a88.661333 88.661333 0 0 0-88.32-88.661334h-111.317334a88.661333 88.661333 0 0 0-88.661333 88.661334v58.624a33.408 33.408 0 1 0 66.773333 0v-58.624a21.504 21.504 0 0 1 21.504-21.888h111.317334c11.904 0 21.504 9.642667 21.504 21.504v153.6a81.237333 81.237333 0 0 0 81.28 80.896h74.197333a167.338667 167.338667 0 0 0 167.338667-167.338667l0.341333-340.224z" fill="#BFCBD9" p-id="1846"></path></svg>