<?xml version="1.0" standalone="no"?><!DOCTYPE svg PUBLIC "-//W3C//DTD SVG 1.1//EN" "http://www.w3.org/Graphics/SVG/1.1/DTD/svg11.dtd"><svg t="1604570139251" class="icon" viewBox="0 0 1024 1024" version="1.1" xmlns="http://www.w3.org/2000/svg" p-id="2104" xmlns:xlink="http://www.w3.org/1999/xlink" width="200" height="200"><defs><style type="text/css"></style></defs><path d="M143.914667 305.621333a34.048 34.048 0 0 1 25.173333 4.949334c14.506667 9.685333 18.773333 28.8 9.557333 43.477333l-2.432 4.693333a44.8 44.8 0 0 0 19.712 57.130667c16.682667 9.984 30.464 24.064 39.893334 40.832 29.44 52.778667 11.178667 118.784-41.429334 149.930667a44.8 44.8 0 0 0-17.28 61.866666l26.453334 44.544c6.058667 10.666667 16.256 18.389333 28.288 21.504 12.032 3.114667 24.832 1.28 35.413333-4.992a112.981333 112.981333 0 0 1 56.448-14.634666c63.573333 0 115.114667 50.346667 115.114667 112.426666a46.293333 46.293333 0 0 0 46.848 45.354667l-0.426667 0.768c11.946667 0 22.997333 6.186667 28.928 16.298667 5.973333 10.069333 5.973333 22.485333 0 32.597333a33.536 33.536 0 0 1-28.885333 16.298667c-63.573333 0-115.157333-50.346667-115.157334-112.426667a42.325333 42.325333 0 0 0-6.144-22.485333 47.445333 47.445333 0 0 0-63.701333-16.853334l-6.826667 3.328c-52.736 23.850667-116.096 5.418667-146.688-43.818666L120.746667 701.866667c-29.44-52.778667-11.178667-118.784 41.429333-149.930667 6.997333-3.968 12.8-9.642667 16.896-16.469333 7.68-10.496 10.453333-23.637333 7.594667-36.266667a45.44 45.44 0 0 0-22.570667-29.696l-6.4-4.053333a110.805333 110.805333 0 0 1-35.029333-145.834667l3.242666-4.053333c4.778667-5.077333 11.093333-8.533333 18.048-9.898667z m688.170666 108.330667a34.56 34.56 0 0 1 40.789334 14.293333c9.386667 15.402667 4.266667 35.370667-11.52 44.586667-6.954667 4.010667-12.8 9.685333-16.853334 16.512a44.416 44.416 0 0 0-4.821333 34.56c3.157333 11.648 10.965333 21.589333 21.717333 27.648 54.272 31.786667 72.106667 100.437333 39.893334 153.6l-26.112 44.629333-4.138667 6.272c-33.322667 46.506667-97.578667 61.738667-149.333333 34.218667a47.018667 47.018667 0 0 0-46.848-0.426667 44.8 44.8 0 0 0-23.04 39.765334 33.493333 33.493333 0 0 1-33.578667 29.44 33.493333 33.493333 0 0 1-33.578667-29.44c0.853333-39.253333 22.613333-75.306667 57.429334-95.018667a117.546667 117.546667 0 0 1 112.981333-1.28 46.634667 46.634667 0 0 0 63.701333-16.512l26.112-44.586667c6.229333-10.368 7.936-22.741333 4.778667-34.346666a45.141333 45.141333 0 0 0-21.674667-27.477334 109.653333 109.653333 0 0 1-41.813333-44.629333c-29.44-52.736-11.178667-118.741333 41.429333-149.888z m-320.341333-42.666667a145.706667 145.706667 0 0 1 102.016 41.002667c27.093333 26.368 42.282667 62.208 42.282667 99.541333l-0.213334 8.533334a141.141333 141.141333 0 0 1-88.576 121.898666 146.858667 146.858667 0 0 1-157.397333-30.293333 138.496 138.496 0 0 1-31.445333-153.6c22.314667-52.736 74.965333-87.082667 133.333333-87.082667z m0 65.962667c-42.368 0-76.757333 33.536-76.757333 74.922667s34.389333 74.965333 76.8 74.965333c42.368 0 76.714667-33.536 76.714666-74.965333l-0.256-6.144c-3.2-38.485333-36.224-68.778667-76.501333-68.778667zM538.24 85.333333c63.573333 0 115.114667 50.346667 115.114667 112.426667a42.325333 42.325333 0 0 0 6.144 22.485333c6.144 10.538667 16.298667 18.261333 28.245333 21.418667 11.946667 3.157333 24.746667 1.536 35.456-4.565333 54.058667-28.714667 121.642667-10.88 153.514667 40.490666a32.938667 32.938667 0 0 1-12.288 44.586667 34.218667 34.218667 0 0 1-45.653334-11.605333l-2.986666-4.437334a47.573333 47.573333 0 0 0-60.714667-12.074666 117.546667 117.546667 0 0 1-112.810667-1.194667 112.042667 112.042667 0 0 1-57.6-94.72 44.8 44.8 0 0 0-13.013333-33.066667 46.976 46.976 0 0 0-33.408-13.781333h-52.565333c-12.629333 0-24.746667 4.949333-33.536 13.781333a45.141333 45.141333 0 0 0-13.312 33.066667 110.165333 110.165333 0 0 1-57.301334 95.146667 115.584 115.584 0 0 1-113.066666-0.725334l-1.536-1.493333-3.712-2.56a32.128 32.128 0 0 1-7.04-42.410667 33.92 33.92 0 0 1 46.08-10.496c6.954667 4.010667 14.933333 6.186667 22.997333 6.4 12.416 0.469333 24.533333-3.84 33.706667-12.074666 9.130667-8.234667 14.506667-19.626667 15.018666-31.786667C373.76 137.173333 423.296 87.168 485.674667 85.333333z" fill="#BFCBD9" p-id="2105"></path></svg>